<svg width="109" height="36" viewBox="0 0 109 36" fill="none" xmlns="http://www.w3.org/2000/svg">
<path d="M46.3851 18.4618C46.3851 23.4588 42.3817 27.141 37.4687 27.141C32.5557 27.141 28.5524 23.4588 28.5524 18.4618C28.5524 13.4297 32.5557 9.78271 37.4687 9.78271C42.3817 9.78271 46.3851 13.4297 46.3851 18.4618ZM42.4819 18.4618C42.4819 15.3392 40.1617 13.2027 37.4687 13.2027C34.7758 13.2027 32.4555 15.3392 32.4555 18.4618C32.4555 21.5531 34.7758 23.721 37.4687 23.721C40.1617 23.721 42.4819 21.5492 42.4819 18.4618Z" fill="#BCC3DC"/>
<path d="M65.6204 18.4618C65.6204 23.4588 61.617 27.141 56.704 27.141C51.791 27.141 47.7877 23.4588 47.7877 18.4618C47.7877 13.4336 51.791 9.78271 56.704 9.78271C61.617 9.78271 65.6204 13.4297 65.6204 18.4618ZM61.7172 18.4618C61.7172 15.3392 59.397 13.2027 56.704 13.2027C54.0111 13.2027 51.6908 15.3392 51.6908 18.4618C51.6908 21.5531 54.0111 23.721 56.704 23.721C59.397 23.721 61.7172 21.5492 61.7172 18.4618Z" fill="#BCC3DC"/>
<path d="M84.0542 10.3071V25.8888C84.0542 32.2984 80.1831 34.9162 75.6067 34.9162C71.2988 34.9162 68.7061 32.1027 67.7283 29.8018L71.1265 28.4205C71.7316 29.8331 73.2143 31.5001 75.6027 31.5001C78.5321 31.5001 80.3474 29.7353 80.3474 26.4131V25.1649H80.2112C79.3376 26.2175 77.6545 27.1371 75.5306 27.1371C71.0864 27.1371 67.015 23.3571 67.015 18.4931C67.015 13.594 71.0864 9.78271 75.5306 9.78271C77.6505 9.78271 79.3336 10.7023 80.2112 11.7236H80.3474V10.311H84.0542V10.3071ZM80.6239 18.4931C80.6239 15.4371 78.5361 13.2027 75.8792 13.2027C73.1863 13.2027 70.9301 15.4371 70.9301 18.4931C70.9301 21.5179 73.1863 23.721 75.8792 23.721C78.5361 23.721 80.6239 21.5179 80.6239 18.4931Z" fill="#BCC3DC"/>
<path d="M90.1654 1.17383V26.6086H86.3585V1.17383H90.1654Z" fill="#BCC3DC"/>
<path d="M105.001 21.3184L108.03 23.2905C107.052 24.7032 104.696 27.1371 100.625 27.1371C95.5754 27.1371 91.8044 23.3258 91.8044 18.4579C91.8044 13.2966 95.6074 9.77881 100.188 9.77881C104.8 9.77881 107.056 13.3632 107.794 15.3001L108.199 16.2862L96.3167 21.0914C97.2264 22.8327 98.641 23.721 100.625 23.721C102.612 23.721 103.991 22.7662 105.001 21.3184ZM95.6755 18.1958L103.618 14.9753C103.181 13.8914 101.867 13.1362 100.32 13.1362C98.3364 13.1362 95.5754 14.8462 95.6755 18.1958Z" fill="#BCC3DC"/>
<path d="M14.142 16.2038V12.5217H26.8493C26.9735 13.1634 27.0376 13.9225 27.0376 14.7443C27.0376 17.5069 26.2642 20.923 23.7716 23.3569C21.3472 25.8221 18.2495 27.1369 14.146 27.1369C6.54002 27.1369 0.144287 21.0873 0.144287 13.6604C0.144287 6.2334 6.54002 0.183838 14.146 0.183838C18.3537 0.183838 21.3512 1.79601 23.6033 3.89732L20.9424 6.49558C19.3275 5.01645 17.1395 3.86601 14.142 3.86601C8.58778 3.86601 4.24381 8.23688 4.24381 13.6604C4.24381 19.0838 8.58778 23.4547 14.142 23.4547C17.7446 23.4547 19.7963 22.0421 21.1108 20.7586C22.1767 19.7178 22.878 18.2308 23.1545 16.1999L14.142 16.2038Z" fill="#BCC3DC"/>
</svg>
