<svg width="119" height="31" viewBox="0 0 119 31" fill="none" xmlns="http://www.w3.org/2000/svg">
<g clip-path="url(#clip0_197_1001)">
<path d="M38.1134 24.2875L39.5949 20.7726C41.1959 21.993 43.3226 22.6277 45.4255 22.6277C46.9787 22.6277 47.9584 22.0174 47.9584 21.0899C47.9345 18.5025 38.663 20.5285 38.5913 14.0355C38.5674 10.7403 41.4349 8.20169 45.4971 8.20169C47.9106 8.20169 50.324 8.81193 52.0445 10.2033L50.6586 13.7915C49.0815 12.7663 47.122 12.034 45.2582 12.034C43.9917 12.034 43.1554 12.6442 43.1554 13.4253C43.1793 15.9639 52.5224 14.5726 52.618 20.7726C52.618 24.1411 49.8222 26.5088 45.8078 26.5088C42.8686 26.5088 40.1684 25.8009 38.1134 24.2875ZM94.961 19.5033C94.2202 20.8214 92.8343 21.7245 91.2333 21.7245C88.8676 21.7245 86.956 19.7718 86.956 17.3552C86.956 14.9387 88.8676 12.9859 91.2333 12.9859C92.8343 12.9859 94.2202 13.8891 94.961 15.2072L99.0471 12.8883C97.5178 10.1056 94.5787 8.20169 91.2333 8.20169C86.2869 8.20169 82.2724 12.3025 82.2724 17.3552C82.2724 22.408 86.2869 26.5088 91.2333 26.5088C94.6025 26.5088 97.5178 24.6292 99.0471 21.8222L94.961 19.5033ZM54.673 0.610352H59.7867V26.167H54.673V0.610352ZM101.054 0.610352V26.167H106.168V18.5025L112.237 26.167H118.785L111.067 17.0623L118.211 8.56783H111.951L106.168 15.6222V0.610352H101.054ZM74.9843 19.5521C74.2435 20.797 72.7142 21.7245 70.9937 21.7245C68.6281 21.7245 66.7164 19.7718 66.7164 17.3552C66.7164 14.9387 68.6281 12.9859 70.9937 12.9859C72.7142 12.9859 74.2435 13.9623 74.9843 15.2316V19.5521ZM74.9843 8.56783V10.6426C74.1479 9.20248 72.069 8.20169 69.8945 8.20169C65.4022 8.20169 61.8656 12.2537 61.8656 17.3308C61.8656 22.408 65.4022 26.5088 69.8945 26.5088C72.069 26.5088 74.1479 25.508 74.9843 24.0678V26.1426H80.0979V8.56783H74.9843Z" fill="#BCC3DC"/>
<path d="M6.49978 19.3805C6.49978 21.1624 5.08994 22.6025 3.34556 22.6025C1.60118 22.6025 0.191345 21.1624 0.191345 19.3805C0.191345 17.5986 1.60118 16.1584 3.34556 16.1584H6.49978V19.3805ZM8.07689 19.3805C8.07689 17.5986 9.48673 16.1584 11.2311 16.1584C12.9755 16.1584 14.3853 17.5986 14.3853 19.3805V27.4356C14.3853 29.2175 12.9755 30.6577 11.2311 30.6577C9.48673 30.6577 8.07689 29.2175 8.07689 27.4356V19.3805Z" fill="#BCC3DC"/>
<path d="M11.2309 6.44385C9.48651 6.44385 8.07667 5.00369 8.07667 3.2218C8.07667 1.43991 9.48651 -0.000244141 11.2309 -0.000244141C12.9753 -0.000244141 14.3851 1.43991 14.3851 3.2218V6.44385H11.2309ZM11.2309 8.07928C12.9753 8.07928 14.3851 9.51944 14.3851 11.3013C14.3851 13.0832 12.9753 14.5234 11.2309 14.5234H3.32145C1.57708 14.5234 0.167236 13.0832 0.167236 11.3013C0.167236 9.51944 1.57708 8.07928 3.32145 8.07928H11.2309Z" fill="#BCC3DC"/>
<path d="M23.8716 11.4481C23.8716 9.66617 25.2815 8.22601 27.0258 8.22601C28.7702 8.22601 30.1801 9.66617 30.1801 11.4481C30.1801 13.2299 28.7702 14.6701 27.0258 14.6701H23.8716V11.4481ZM22.2945 11.4481C22.2945 13.2299 20.8847 14.6701 19.1403 14.6701C17.3959 14.6701 15.9861 13.2299 15.9861 11.4481V3.36853C15.9861 1.58664 17.3959 0.146484 19.1403 0.146484C20.8847 0.146484 22.2945 1.58664 22.2945 3.36853V11.4481Z" fill="#BCC3DC"/>
<path d="M19.1403 24.2136C20.8847 24.2136 22.2945 25.6537 22.2945 27.4356C22.2945 29.2175 20.8847 30.6577 19.1403 30.6577C17.3959 30.6577 15.9861 29.2175 15.9861 27.4356V24.2136H19.1403ZM19.1403 22.6025C17.3959 22.6025 15.9861 21.1624 15.9861 19.3805C15.9861 17.5986 17.3959 16.1584 19.1403 16.1584H27.0497C28.7941 16.1584 30.2039 17.5986 30.2039 19.3805C30.2039 21.1624 28.7941 22.6025 27.0497 22.6025H19.1403Z" fill="#BCC3DC"/>
</g>
<defs>
<clipPath id="clip0_197_1001">
<rect width="119" height="31" fill="white"/>
</clipPath>
</defs>
</svg>
