<svg width="86" height="20" viewBox="0 0 86 20" fill="none" xmlns="http://www.w3.org/2000/svg">
<g clip-path="url(#clip0_197_1019)">
<path fill-rule="evenodd" clip-rule="evenodd" d="M69.8239 6.41391C70.1517 6.97291 70.259 7.60891 70.2944 8.32391L70.3409 9.27691V15.9409L70.3885 16.8949C70.4836 18.4529 71.6461 19.6049 73.2346 19.7029L74.1947 19.7499V9.27691L74.2423 8.32391C74.2817 7.61691 74.388 6.96891 74.7208 6.40591C75.06 5.82844 75.547 5.34933 76.1328 5.01669C76.7185 4.68405 77.3825 4.50958 78.0581 4.51079C78.7337 4.51201 79.3971 4.68887 79.9816 5.02362C80.5662 5.35837 81.0513 5.83922 81.3884 6.41791C81.7162 6.97691 81.8184 7.62491 81.8578 8.32391L81.9054 9.27391V15.9409L81.9529 16.8949C82.0521 18.4609 83.2055 19.6129 84.799 19.7029L85.7592 19.7499V8.32391C85.7592 6.30348 84.9474 4.36575 83.5022 2.93681C82.057 1.50787 80.0968 0.704702 78.0526 0.703907C76.9585 0.702766 75.8767 0.932412 74.8796 1.3775C73.8825 1.82259 72.9929 2.47287 72.2704 3.28491C71.5475 2.47319 70.6579 1.82307 69.6608 1.37785C68.6638 0.932625 67.5822 0.702535 66.4881 0.702907C64.8875 0.702907 63.4022 1.18291 62.1719 2.01191C61.4212 1.18391 59.7417 0.702907 58.7775 0.702907V19.7499L59.7417 19.7029C61.3544 19.5979 62.52 18.4769 62.5827 16.8949L62.6343 15.9409V9.27691L62.6819 8.32391C62.7223 7.60491 62.8235 6.97291 63.1523 6.40991C63.4918 5.8328 63.9785 5.35381 64.5639 5.02076C65.1492 4.68771 65.8127 4.51225 66.4881 4.51191C67.164 4.51205 67.8281 4.68786 68.4135 5.02169C68.999 5.35552 69.4854 5.83565 69.8239 6.41391ZM3.85381 19.7039L4.81802 19.7499H19.2711L19.2235 18.7999C19.093 17.2339 17.971 16.0899 16.3815 15.9879L15.4173 15.9409H6.74645L18.3069 4.51091L18.2593 3.56191C18.1844 1.97991 17.0148 0.836907 15.4173 0.749907L14.4531 0.706907L0 0.702907L0.0475529 1.65591C0.174024 3.20691 1.31226 4.37491 2.88859 4.46491L3.85381 4.51191H12.5246L0.964212 15.9419L1.01176 16.8949C1.10687 18.4649 2.2532 19.6019 3.85381 19.7029V19.7039ZM54.9945 3.49091C55.8894 4.37523 56.5993 5.42512 57.0836 6.58064C57.568 7.73616 57.8172 8.97466 57.8172 10.2254C57.8172 11.4762 57.568 12.7147 57.0836 13.8702C56.5993 15.0257 55.8894 16.0756 54.9945 16.9599C53.1865 18.7455 50.7351 19.7485 48.1792 19.7485C45.6233 19.7485 43.172 18.7455 41.364 16.9599C37.6012 13.2409 37.6012 7.20991 41.364 3.49091C42.2581 2.60688 43.3196 1.90558 44.4879 1.42704C45.6562 0.948503 46.9085 0.702102 48.1732 0.701907C49.4399 0.701037 50.6944 0.947005 51.8648 1.42574C53.0353 1.90447 54.0988 2.60658 54.9945 3.49191V3.49091ZM52.2678 6.18791C53.3516 7.25993 53.9604 8.71341 53.9604 10.2289C53.9604 11.7444 53.3516 13.1979 52.2678 14.2699C51.1831 15.3411 49.7125 15.9429 48.1792 15.9429C46.6459 15.9429 45.1753 15.3411 44.0907 14.2699C43.0069 13.1979 42.3981 11.7444 42.3981 10.2289C42.3981 8.71341 43.0069 7.25993 44.0907 6.18791C45.1753 5.1167 46.6459 4.51497 48.1792 4.51497C49.7125 4.51497 51.1831 5.1167 52.2678 6.18791ZM27.95 0.701907C29.2147 0.702233 30.467 0.948792 31.6354 1.4275C32.8037 1.90622 33.8652 2.6077 34.7592 3.49191C38.5229 7.20991 38.5229 13.2419 34.7592 16.9599C32.9512 18.7455 30.4998 19.7485 27.9439 19.7485C25.388 19.7485 22.9367 18.7455 21.1287 16.9599C17.3659 13.2409 17.3659 7.20991 21.1287 3.49091C22.0228 2.60688 23.0843 1.90558 24.2526 1.42704C25.4209 0.948503 26.6732 0.702102 27.9379 0.701907H27.95ZM32.0325 6.18591C33.1166 7.25797 33.7256 8.71167 33.7256 10.2274C33.7256 11.7431 33.1166 13.1968 32.0325 14.2689C30.9478 15.3401 29.4773 15.9418 27.9439 15.9418C26.4106 15.9418 24.94 15.3401 23.8554 14.2689C22.7716 13.1969 22.1628 11.7434 22.1628 10.2279C22.1628 8.71241 22.7716 7.25893 23.8554 6.18691C24.94 5.1157 26.4106 4.51397 27.9439 4.51397C29.4773 4.51397 30.9478 5.1157 32.0325 6.18691V6.18591Z" fill="#BCC3DC"/>
</g>
<defs>
<clipPath id="clip0_197_1019">
<rect width="86" height="20" fill="white"/>
</clipPath>
</defs>
</svg>
