<svg width="10" height="16" viewBox="0 0 10 16" fill="none" xmlns="http://www.w3.org/2000/svg">
<path d="M5.83331 6.50002H9.58331L9.16665 8.16669H5.83331V15.6667H4.16665V8.16669H0.833313V6.50002H4.16665V4.94002C4.16665 3.45419 4.32165 2.91502 4.61165 2.37169C4.89582 1.83486 5.33482 1.39586 5.87165 1.11169C6.41498 0.821687 6.95415 0.666687 8.43998 0.666687C8.87498 0.666687 9.25665 0.708354 9.58331 0.791687V2.33335H8.43998C7.33665 2.33335 7.00081 2.39835 6.65831 2.58169C6.40498 2.71669 6.21665 2.90502 6.08165 3.15835C5.89831 3.50085 5.83331 3.83669 5.83331 4.94002V6.50002Z" fill="#CCD2E9"/>
</svg>
