<svg width="18" height="18" viewBox="0 0 18 18" fill="none" xmlns="http://www.w3.org/2000/svg">
<path d="M9.00002 6.50002C8.33698 6.50002 7.70109 6.76341 7.23225 7.23225C6.76341 7.70109 6.50002 8.33698 6.50002 9.00002C6.50002 9.66306 6.76341 10.2989 7.23225 10.7678C7.70109 11.2366 8.33698 11.5 9.00002 11.5C9.66306 11.5 10.2989 11.2366 10.7678 10.7678C11.2366 10.2989 11.5 9.66306 11.5 9.00002C11.5 8.33698 11.2366 7.70109 10.7678 7.23225C10.2989 6.76341 9.66306 6.50002 9.00002 6.50002ZM9.00002 4.83335C10.1051 4.83335 11.1649 5.27234 11.9463 6.05374C12.7277 6.83514 13.1667 7.89495 13.1667 9.00002C13.1667 10.1051 12.7277 11.1649 11.9463 11.9463C11.1649 12.7277 10.1051 13.1667 9.00002 13.1667C7.89495 13.1667 6.83514 12.7277 6.05374 11.9463C5.27234 11.1649 4.83335 10.1051 4.83335 9.00002C4.83335 7.89495 5.27234 6.83514 6.05374 6.05374C6.83514 5.27234 7.89495 4.83335 9.00002 4.83335ZM14.4167 4.62502C14.4167 4.90129 14.3069 5.16624 14.1116 5.36159C13.9162 5.55694 13.6513 5.66669 13.375 5.66669C13.0988 5.66669 12.8338 5.55694 12.6385 5.36159C12.4431 5.16624 12.3334 4.90129 12.3334 4.62502C12.3334 4.34875 12.4431 4.0838 12.6385 3.88845C12.8338 3.6931 13.0988 3.58335 13.375 3.58335C13.6513 3.58335 13.9162 3.6931 14.1116 3.88845C14.3069 4.0838 14.4167 4.34875 14.4167 4.62502ZM9.00002 2.33335C6.93835 2.33335 6.60169 2.33919 5.64252 2.38169C4.98919 2.41252 4.55085 2.50002 4.14419 2.65835C3.78252 2.79835 3.52169 2.96585 3.24419 3.24419C2.98336 3.49619 2.78281 3.80384 2.65752 4.14419C2.49919 4.55252 2.41169 4.99002 2.38169 5.64252C2.33835 6.56252 2.33335 6.88419 2.33335 9.00002C2.33335 11.0617 2.33919 11.3984 2.38169 12.3575C2.41252 13.01 2.50002 13.4492 2.65752 13.855C2.79919 14.2175 2.96585 14.4784 3.24252 14.755C3.52335 15.035 3.78419 15.2025 4.14252 15.3409C4.55419 15.5 4.99252 15.5884 5.64252 15.6184C6.56252 15.6617 6.88419 15.6667 9.00002 15.6667C11.0617 15.6667 11.3984 15.6609 12.3575 15.6184C13.0092 15.5875 13.4484 15.5 13.855 15.3425C14.2159 15.2017 14.4784 15.0342 14.755 14.7575C15.0359 14.4767 15.2034 14.2159 15.3417 13.8575C15.5 13.4467 15.5884 13.0075 15.6184 12.3575C15.6617 11.4375 15.6667 11.1159 15.6667 9.00002C15.6667 6.93835 15.6609 6.60169 15.6184 5.64252C15.5875 4.99085 15.5 4.55085 15.3417 4.14419C15.2161 3.80419 15.0159 3.49665 14.7559 3.24419C14.504 2.98323 14.1963 2.78266 13.8559 2.65752C13.4475 2.49919 13.0092 2.41169 12.3575 2.38169C11.4375 2.33835 11.1159 2.33335 9.00002 2.33335ZM9.00002 0.666687C11.2642 0.666687 11.5467 0.67502 12.435 0.716687C13.3225 0.758354 13.9267 0.89752 14.4584 1.10419C15.0084 1.31585 15.4717 1.60252 15.935 2.06502C16.3588 2.4816 16.6866 2.98551 16.8959 3.54169C17.1017 4.07252 17.2417 4.67752 17.2834 5.56502C17.3225 6.45335 17.3334 6.73585 17.3334 9.00002C17.3334 11.2642 17.325 11.5467 17.2834 12.435C17.2417 13.3225 17.1017 13.9267 16.8959 14.4584C16.6873 15.0148 16.3593 15.5189 15.935 15.935C15.5183 16.3586 15.0144 16.6865 14.4584 16.8959C13.9275 17.1017 13.3225 17.2417 12.435 17.2834C11.5467 17.3225 11.2642 17.3334 9.00002 17.3334C6.73585 17.3334 6.45335 17.325 5.56502 17.2834C4.67752 17.2417 4.07335 17.1017 3.54169 16.8959C2.98529 16.6871 2.48129 16.3591 2.06502 15.935C1.64119 15.5185 1.3133 15.0146 1.10419 14.4584C0.89752 13.9275 0.758354 13.3225 0.716687 12.435C0.67752 11.5467 0.666687 11.2642 0.666687 9.00002C0.666687 6.73585 0.67502 6.45335 0.716687 5.56502C0.758354 4.67669 0.89752 4.07335 1.10419 3.54169C1.31272 2.98517 1.64069 2.48112 2.06502 2.06502C2.48141 1.64105 2.98538 1.31313 3.54169 1.10419C4.07335 0.89752 4.67669 0.758354 5.56502 0.716687C6.45335 0.67752 6.73585 0.666687 9.00002 0.666687Z" fill="#CCD2E9"/>
</svg>
