<svg width="16" height="16" viewBox="0 0 16 16" fill="none" xmlns="http://www.w3.org/2000/svg">
<path d="M8.00002 5.95835C8.76419 5.17752 9.75919 4.66669 10.9167 4.66669C12.1323 4.66669 13.2981 5.14957 14.1576 6.00911C15.0171 6.86865 15.5 8.03444 15.5 9.25002V15.5H13.8334V9.25002C13.8334 8.47647 13.5261 7.73461 12.9791 7.18762C12.4321 6.64064 11.6902 6.33335 10.9167 6.33335C10.1431 6.33335 9.40127 6.64064 8.85429 7.18762C8.30731 7.73461 8.00002 8.47647 8.00002 9.25002V15.5H6.33335V5.08335H8.00002V5.95835ZM2.16669 3.41669C1.83517 3.41669 1.51722 3.28499 1.2828 3.05057C1.04838 2.81615 0.916687 2.49821 0.916687 2.16669C0.916687 1.83517 1.04838 1.51722 1.2828 1.2828C1.51722 1.04838 1.83517 0.916687 2.16669 0.916687C2.49821 0.916687 2.81615 1.04838 3.05057 1.2828C3.28499 1.51722 3.41669 1.83517 3.41669 2.16669C3.41669 2.49821 3.28499 2.81615 3.05057 3.05057C2.81615 3.28499 2.49821 3.41669 2.16669 3.41669ZM1.33335 5.08335H3.00002V15.5H1.33335V5.08335Z" fill="#CCD2E9"/>
</svg>
