<svg width="17" height="15" viewBox="0 0 17 15" fill="none" xmlns="http://www.w3.org/2000/svg">
<path d="M11.75 2.62501C11.1166 2.62491 10.5085 2.87345 10.0566 3.31715C9.6046 3.76086 9.34488 4.36426 9.33331 4.99751L9.30998 6.31001C9.30861 6.38048 9.29236 6.44987 9.26229 6.51362C9.23223 6.57737 9.18902 6.63404 9.13551 6.67991C9.082 6.72579 9.0194 6.75983 8.95181 6.77982C8.88421 6.7998 8.81316 6.80526 8.74331 6.79585L7.44248 6.61918C5.73081 6.38585 4.09081 5.59751 2.51748 4.28668C2.01914 7.04501 2.99248 8.95585 5.33664 10.43L6.79248 11.345C6.86165 11.3885 6.91911 11.4482 6.95985 11.5191C7.00058 11.5899 7.02334 11.6696 7.02614 11.7512C7.02893 11.8329 7.01168 11.914 6.97589 11.9874C6.94009 12.0609 6.88685 12.1244 6.82081 12.1725L5.49414 13.1417C6.28331 13.1908 7.03248 13.1558 7.65414 13.0325C11.5858 12.2475 14.2 9.28918 14.2 4.40918C14.2 4.01085 13.3566 2.62501 11.75 2.62501ZM7.66664 4.96668C7.68119 4.16339 7.93238 3.38224 8.38877 2.72103C8.84517 2.05983 9.48648 1.54795 10.2324 1.24949C10.9783 0.951026 11.7957 0.879247 12.5823 1.04314C13.3688 1.20703 14.0895 1.5993 14.6541 2.17085C15.2466 2.16668 15.7508 2.31668 16.8783 1.63335C16.5991 3.00001 16.4616 3.59335 15.8666 4.40918C15.8666 10.7775 11.9525 13.8742 7.98081 14.6667C5.25748 15.21 1.29748 14.3175 0.162476 13.1325C0.740809 13.0875 3.09081 12.835 4.44914 11.8408C3.29998 11.0833 -1.27419 8.39168 1.73164 1.15501C3.14248 2.80251 4.57331 3.92418 6.02331 4.51918C6.98831 4.91501 7.22498 4.90668 7.66748 4.96751L7.66664 4.96668Z" fill="#CCD2E9"/>
</svg>
